<?xml version="1.0" encoding="UTF-8" standalone="no"?>
<!-- Created with Inkscape (http://www.inkscape.org/) -->

<svg
   xmlns:dc="http://purl.org/dc/elements/1.1/"
   xmlns:cc="http://creativecommons.org/ns#"
   xmlns:rdf="http://www.w3.org/1999/02/22-rdf-syntax-ns#"
   xmlns:svg="http://www.w3.org/2000/svg"
   xmlns="http://www.w3.org/2000/svg"
   xmlns:sodipodi="http://sodipodi.sourceforge.net/DTD/sodipodi-0.dtd"
   xmlns:inkscape="http://www.inkscape.org/namespaces/inkscape"
   width="251.63184"
   height="63.26564"
   id="svg2"
   version="1.1"
   inkscape:version="0.48.4 r9939"
   sodipodi:docname="crossbar_demos_text_paths.svg">
  <defs
     id="defs4" />
  <sodipodi:namedview
     id="base"
     pagecolor="#ffffff"
     bordercolor="#666666"
     borderopacity="1.0"
     inkscape:pageopacity="0.0"
     inkscape:pageshadow="2"
     inkscape:zoom="1.979899"
     inkscape:cx="71.813998"
     inkscape:cy="-104.64696"
     inkscape:document-units="px"
     inkscape:current-layer="text2985"
     showgrid="false"
     fit-margin-top="2"
     fit-margin-left="2"
     fit-margin-right="2"
     fit-margin-bottom="2"
     inkscape:window-width="1858"
     inkscape:window-height="1178"
     inkscape:window-x="1016"
     inkscape:window-y="-8"
     inkscape:window-maximized="1" />
  <metadata
     id="metadata7">
    <rdf:RDF>
      <cc:Work
         rdf:about="">
        <dc:format>image/svg+xml</dc:format>
        <dc:type
           rdf:resource="http://purl.org/dc/dcmitype/StillImage" />
      </cc:Work>
    </rdf:RDF>
  </metadata>
  <g
     inkscape:label="Ebene 1"
     inkscape:groupmode="layer"
     id="layer1"
     transform="translate(-130.99767,-130.85782)">
    <g
       style="font-size:48px;font-style:normal;font-variant:normal;font-weight:normal;font-stretch:normal;line-height:125%;letter-spacing:0px;word-spacing:0px;fill:#a2a2a2;fill-opacity:1;stroke:none;font-family:MS UI Gothic;-inkscape-font-specification:MS UI Gothic"
       id="text2985">
      <path
         d="m 157.52501,165.88272 c -3.51956,0.7041 -6.87942,1.05615 -10.07959,1.05615 -1.28029,0 -2.4883,-0.0562 -3.62402,-0.16845 -1.13576,-0.11231 -2.39967,-0.3523 -3.79175,-0.71997 -1.3921,-0.36768 -2.57618,-0.86353 -3.55225,-1.48755 -0.97608,-0.62402 -1.80005,-1.50415 -2.47192,-2.64038 -0.67188,-1.13623 -1.00782,-2.47241 -1.00781,-4.00855 l 0,-13.68017 c -1e-5,-6.27146 4.81591,-9.4072 14.44775,-9.40723 2.36814,3e-5 5.66404,0.35208 9.88769,1.05615 l 0,5.61621 c -3.80764,-0.89646 -7.0713,-1.3447 -9.79101,-1.34472 -1.08791,2e-5 -1.97585,0.032 -2.66382,0.0959 -0.688,0.064 -1.40822,0.22391 -2.16064,0.47974 -0.75246,0.25588 -1.31251,0.66384 -1.68018,1.22388 -0.36769,0.56008 -0.55152,1.28835 -0.55151,2.18481 l 0,13.24805 c -1e-5,2.81543 2.57567,4.22315 7.72705,4.22314 2.27244,1e-5 5.37644,-0.46386 9.31201,-1.3916 z"
         style="font-weight:bold;fill:#a2a2a2;-inkscape-font-specification:Play Bold"
         id="path3827" />
      <path
         d="m 177.28575,148.55508 -2.40088,0 c -1.91993,2e-5 -3.36793,0.29592 -4.34399,0.8877 -0.97609,0.59181 -1.46412,1.60793 -1.46411,3.04834 l 0,13.96728 -7.00782,0 0,-23.23242 6.67237,0 0,4.08106 c 0.0322,-1.15233 0.69628,-2.20042 1.99219,-3.14429 1.29588,-0.94382 2.64793,-1.41575 4.05615,-1.41577 l 2.49609,0 z"
         style="font-weight:bold;fill:#a2a2a2;-inkscape-font-specification:Play Bold"
         id="path3829" />
      <path
         d="m 204.04405,151.62686 0,6.86426 c -2e-5,1.50391 -0.24001,2.79175 -0.71997,3.86352 -0.48,1.07179 -1.07204,1.90357 -1.77612,2.49537 -0.70413,0.59179 -1.62405,1.04785 -2.75977,1.36816 -1.13576,0.32031 -2.17555,0.52051 -3.11938,0.60059 -0.94387,0.0801 -2.08791,0.12011 -3.43213,0.12011 -1.34425,0 -2.48829,-0.04 -3.43213,-0.12011 -0.94386,-0.0801 -1.9839,-0.28028 -3.12012,-0.60059 -1.13623,-0.32031 -2.0564,-0.77637 -2.7605,-1.36816 -0.7041,-0.5918 -1.29614,-1.42358 -1.77612,-2.49537 -0.47998,-1.07177 -0.71997,-2.35961 -0.71997,-3.86352 l 0,-6.86426 c 0,-1.60057 0.24805,-2.96873 0.74414,-4.10449 0.49609,-1.13572 1.10425,-2.00755 1.82446,-2.61548 0.72021,-0.60789 1.65625,-1.08005 2.80811,-1.4165 1.15185,-0.33641 2.18383,-0.54441 3.09595,-0.62403 0.9121,-0.0796 2.02415,-0.11936 3.33618,-0.11938 1.312,2e-5 2.42405,0.0398 3.33618,0.11938 0.91209,0.0796 1.94407,0.28762 3.09595,0.62403 1.15183,0.33645 2.08762,0.80861 2.80737,1.4165 0.7197,0.60793 1.32761,1.47976 1.82373,2.61548 0.49607,1.13576 0.74412,2.50392 0.74414,4.10449 z m -7.00781,7.68018 0,-8.78467 c -2e-5,-1.24803 -0.32009,-2.13597 -0.96021,-2.66382 -0.64015,-0.52781 -1.92018,-0.79173 -3.84008,-0.79175 -1.91994,2e-5 -3.19972,0.26394 -3.83936,0.79175 -0.63966,0.52785 -0.95948,1.41579 -0.95947,2.66382 l 0,8.78467 c -1e-5,1.21582 0.31176,2.06372 0.9353,2.5437 0.62353,0.47998 1.91137,0.71997 3.86353,0.71997 1.95213,0 3.24021,-0.23999 3.86425,-0.71997 0.62401,-0.47998 0.93602,-1.32788 0.93604,-2.5437 z"
         style="font-weight:bold;fill:#a2a2a2;-inkscape-font-specification:Play Bold"
         id="path3831" />
      <path
         d="m 229.52208,157.38663 0,2.92822 c -2e-5,1.15137 -0.21584,2.14307 -0.64746,2.9751 -0.43166,0.83203 -0.97561,1.48022 -1.63184,1.94458 -0.65627,0.46435 -1.51247,0.82446 -2.5686,1.08032 -1.05617,0.25586 -2.07204,0.42383 -3.04761,0.50391 -0.9756,0.0801 -2.11964,0.12011 -3.43213,0.12011 -2.52833,0 -5.58448,-0.24023 -9.16845,-0.7207 l 0,-4.65527 c 4.44823,0.67188 7.53661,1.00781 9.26513,1.00781 1.37597,0 2.43993,-0.13598 3.1919,-0.40796 0.75193,-0.27197 1.12791,-0.80786 1.12793,-1.60767 l 0,-1.4414 c -2e-5,-0.73535 -0.20803,-1.2871 -0.62403,-1.65528 -0.41603,-0.36815 -1.31202,-0.55223 -2.68799,-0.55224 l -3.0249,0 c -2.43165,1e-5 -4.3274,-0.48803 -5.68725,-1.46411 -1.35987,-0.97607 -2.0398,-2.40795 -2.0398,-4.29566 l 0,-2.83154 c 0,-2.11228 1.00806,-3.56834 3.02417,-4.36816 2.01611,-0.79979 4.86401,-1.19969 8.5437,-1.19971 1.53612,2e-5 4.28807,0.14407 8.25586,0.43213 l 0,4.46338 c -4.9922,-0.38377 -7.80812,-0.57567 -8.44775,-0.57569 -1.95216,2e-5 -3.18434,0.13601 -3.69653,0.40796 -0.51222,0.27199 -0.76832,0.79177 -0.76832,1.55933 l 0,1.24805 c 0,0.3838 0.20019,0.73585 0.60059,1.05615 0.40038,0.32032 1.01659,0.48048 1.84863,0.48047 l 3.07178,0 c 5.69529,1e-5 8.54295,1.85597 8.54297,5.56787 z"
         style="font-weight:bold;fill:#a2a2a2;-inkscape-font-specification:Play Bold"
         id="path3833" />
      <path
         d="m 254.74083,157.38663 0,2.92822 c -2e-5,1.15137 -0.21584,2.14307 -0.64746,2.9751 -0.43166,0.83203 -0.97561,1.48022 -1.63184,1.94458 -0.65627,0.46435 -1.51247,0.82446 -2.5686,1.08032 -1.05617,0.25586 -2.07204,0.42383 -3.04761,0.50391 -0.9756,0.0801 -2.11964,0.12011 -3.43213,0.12011 -2.52833,0 -5.58448,-0.24023 -9.16845,-0.7207 l 0,-4.65527 c 4.44823,0.67188 7.53661,1.00781 9.26513,1.00781 1.37597,0 2.43993,-0.13598 3.1919,-0.40796 0.75193,-0.27197 1.12791,-0.80786 1.12793,-1.60767 l 0,-1.4414 c -2e-5,-0.73535 -0.20803,-1.2871 -0.62403,-1.65528 -0.41603,-0.36815 -1.31202,-0.55223 -2.68799,-0.55224 l -3.0249,0 c -2.43165,1e-5 -4.3274,-0.48803 -5.68725,-1.46411 -1.35987,-0.97607 -2.0398,-2.40795 -2.0398,-4.29566 l 0,-2.83154 c 0,-2.11228 1.00806,-3.56834 3.02417,-4.36816 2.01611,-0.79979 4.86401,-1.19969 8.5437,-1.19971 1.53612,2e-5 4.28807,0.14407 8.25586,0.43213 l 0,4.46338 c -4.9922,-0.38377 -7.80812,-0.57567 -8.44775,-0.57569 -1.95216,2e-5 -3.18434,0.13601 -3.69653,0.40796 -0.51222,0.27199 -0.76832,0.79177 -0.76832,1.55933 l 0,1.24805 c 0,0.3838 0.20019,0.73585 0.60059,1.05615 0.40038,0.32032 1.01659,0.48048 1.84863,0.48047 l 3.07178,0 c 5.69529,1e-5 8.54295,1.85597 8.54297,5.56787 z"
         style="font-weight:bold;fill:#a2a2a2;-inkscape-font-specification:Play Bold"
         id="path3835" />
      <path
         d="m 283.75206,150.57071 0,7.63184 c -3e-5,3.16797 -0.95193,5.41601 -2.85571,6.74414 -1.90383,1.32812 -4.96804,1.99218 -9.19263,1.99218 -4.44728,0 -7.51905,-0.69604 -9.21533,-2.08813 -1.69629,-1.39209 -2.54444,-3.60815 -2.54444,-6.64819 l 0,-25.34473 7.00782,0 0,12.67236 c 0.416,-1.05564 1.19212,-1.78342 2.32837,-2.18335 1.13621,-0.39988 2.8723,-0.59983 5.20825,-0.59985 1.98338,2e-5 3.5991,0.15993 4.84717,0.47974 1.24802,0.31984 2.19211,0.83986 2.83227,1.56005 0.64011,0.72024 1.06418,1.51223 1.27222,2.37598 0.20798,0.86379 0.31198,1.99977 0.31201,3.40796 z m -7.00781,8.54297 0,-8.59131 c -2e-5,-1.50389 -0.28005,-2.45579 -0.84009,-2.85571 -0.56008,-0.39989 -1.94411,-0.59984 -4.1521,-0.59986 -1.98439,2e-5 -3.28053,0.25588 -3.88843,0.76758 -0.60792,0.51174 -0.91187,1.40773 -0.91186,2.68799 l 0,8.59131 c -1e-5,1.37696 0.29613,2.29737 0.88842,2.76123 0.59228,0.46387 1.91235,0.6958 3.96021,0.6958 2.04783,0 3.38377,-0.23193 4.00781,-0.6958 0.62401,-0.46386 0.93602,-1.38427 0.93604,-2.76123 z"
         style="font-weight:bold;fill:#a2a2a2;-inkscape-font-specification:Play Bold"
         id="path3837" />
      <path
         d="m 310.12218,166.4584 -6.86426,0 0,-2.1123 c -0.51174,0.92774 -1.24758,1.5918 -2.20752,1.99219 -0.95998,0.40039 -2.72023,0.60058 -5.28076,0.60058 -3.13575,0 -5.21558,-0.47998 -6.2395,-1.43994 -1.02393,-0.95996 -1.53589,-2.95996 -1.53589,-6 0,-2.75194 0.52807,-4.66405 1.58423,-5.73633 1.05614,-1.07225 2.94408,-1.60838 5.66381,-1.60839 l 7.87207,0 0,-1.5835 c -10e-6,-1.40819 -0.32814,-2.34422 -0.98437,-2.80811 -0.65627,-0.46384 -2.04005,-0.69578 -4.15137,-0.6958 -1.98438,2e-5 -4.70459,0.19192 -8.16064,0.57569 l 0,-4.41651 c 2.65624,-0.31931 5.6162,-0.47898 8.87988,-0.479 4.28807,2e-5 7.26414,0.52004 8.92822,1.56006 1.66404,1.04006 2.49607,3.09572 2.4961,6.16699 z m -7.00782,-5.95166 0,-4.51171 -4.80029,0 c -1.53614,10e-6 -2.4961,0.17579 -2.87988,0.52734 -0.3838,0.35157 -0.57569,1.29542 -0.57568,2.83154 -1e-5,1.50391 0.19994,2.41602 0.59985,2.73633 0.39989,0.32032 1.41576,0.48047 3.04761,0.48047 0.79979,0 1.39183,-0.008 1.77612,-0.0242 0.38426,-0.0161 0.80028,-0.0562 1.24805,-0.12012 0.44773,-0.064 0.75975,-0.16796 0.93603,-0.31201 0.17625,-0.14404 0.32835,-0.34399 0.4563,-0.59985 0.12791,-0.25586 0.19188,-0.59179 0.19189,-1.00782 z"
         style="font-weight:bold;fill:#a2a2a2;-inkscape-font-specification:Play Bold"
         id="path3839" />
      <path
         d="m 331.5045,148.55508 -2.40088,0 c -1.91993,2e-5 -3.36793,0.29592 -4.34399,0.8877 -0.97609,0.59181 -1.46412,1.60793 -1.46411,3.04834 l 0,13.96728 -7.00782,0 0,-23.23242 6.67237,0 0,4.08106 c 0.0322,-1.15233 0.69628,-2.20042 1.99219,-3.14429 1.29588,-0.94382 2.64793,-1.41575 4.05615,-1.41577 l 2.49609,0 z"
         style="font-weight:bold;fill:#a2a2a2;-inkscape-font-specification:Play Bold"
         id="path3841" />
      <path
         d="m 341.1754,166.4584 -5.56787,0 0,-5.18408 5.56787,0 z"
         style="fill:#ffffff"
         id="path3843" />
      <path
         d="m 352.59239,139.33829 -4.31982,0 0,-4.51172 4.31982,0 z m 0,27.12011 -4.31982,0 0,-23.23242 4.31982,0 z"
         style="fill:#ffffff"
         id="path3845" />
      <path
         d="m 380.6295,151.04971 0,8.06397 c -2e-5,1.44043 -0.17605,2.65674 -0.52807,3.64892 -0.35208,0.99219 -0.80008,1.76026 -1.344,2.3042 -0.54397,0.54395 -1.32009,0.95996 -2.32837,1.24805 -1.00832,0.28809 -1.96852,0.46411 -2.88061,0.52808 -0.91213,0.064 -2.12014,0.0959 -3.62403,0.0959 -1.91993,0 -3.41578,-0.064 -4.48755,-0.19189 -1.07178,-0.12793 -2.1438,-0.43994 -3.21606,-0.93604 -1.07227,-0.49609 -1.84034,-1.28808 -2.3042,-2.37597 -0.46387,-1.08789 -0.6958,-2.52832 -0.6958,-4.32129 l 0,-8.06397 c 0,-1.53514 0.18408,-2.83079 0.55225,-3.88696 0.36816,-1.05613 0.81615,-1.87229 1.34399,-2.44849 0.52783,-0.57615 1.30371,-1.01609 2.32764,-1.31982 1.02391,-0.30369 1.97582,-0.48753 2.85571,-0.55151 0.87987,-0.064 2.08788,-0.0959 3.62402,-0.0959 1.53612,2e-5 2.74413,0.032 3.62403,0.0959 0.87986,0.064 1.83201,0.24782 2.85644,0.55151 1.02439,0.30373 1.80052,0.74367 2.32837,1.31982 0.52781,0.5762 0.97581,1.39236 1.344,2.44849 0.36814,1.05617 0.55222,2.35182 0.55224,3.88696 z m -4.4165,8.68799 0,-9.40723 c -2e-5,-2.14451 -0.43215,-3.47263 -1.29639,-3.98437 -0.86427,-0.5117 -2.52834,-0.76756 -4.99219,-0.76758 -2.46388,2e-5 -4.12769,0.25588 -4.99145,0.76758 -0.86378,0.51174 -1.29566,1.83986 -1.29566,3.98437 l 0,9.40723 c 0,1.02442 0.11181,1.84058 0.33545,2.44849 0.22363,0.60791 0.63964,1.04785 1.24805,1.31982 0.60839,0.27198 1.23241,0.43995 1.87207,0.50391 0.63964,0.064 1.58348,0.096 2.83154,0.096 1.24804,0 2.19213,-0.032 2.83228,-0.096 0.64012,-0.064 1.26414,-0.23193 1.87207,-0.50391 0.60789,-0.27197 1.02391,-0.71191 1.24805,-1.31982 0.2241,-0.60791 0.33616,-1.42407 0.33618,-2.44849 z"
         style="fill:#ffffff"
         id="path3847" />
    </g>
    <g
       style="font-size:35px;font-style:normal;font-variant:normal;font-weight:normal;font-stretch:normal;line-height:125%;letter-spacing:0px;word-spacing:0px;fill:#d2c501;fill-opacity:1;stroke:none;font-family:MS UI Gothic;-inkscape-font-specification:MS UI Gothic"
       id="text2991">
      <path
         d="m 267.45364,175.56767 0,10.04563 c -2e-5,4.10655 -3.17338,6.15982 -9.52011,6.15982 l -9.06402,0 0,-22.71454 9.02984,0 c 6.36951,2e-5 9.55427,2.16972 9.55429,6.50909 z m -3.25454,9.97513 0,-10.00931 c -2e-5,-0.86373 -0.17501,-1.58132 -0.52498,-2.15278 -0.35001,-0.57143 -0.84579,-0.99137 -1.48735,-1.25985 -0.6416,-0.26843 -1.3008,-0.45517 -1.97762,-0.56022 -0.67684,-0.10501 -1.45852,-0.15753 -2.34504,-0.15755 l -5.60013,0 0,18.05969 5.42495,0 c 4.3401,1e-5 6.51015,-1.30665 6.51017,-3.91998 z"
         style="fill:#d2c501;font-family:Play;-inkscape-font-specification:Play"
         id="path3816" />
      <path
         d="m 286.37851,184.00365 -11.37543,0 0,2.55493 c 0,1.18988 0.41994,2.03565 1.25984,2.53731 0.83989,0.50166 2.08834,0.75249 3.74535,0.75248 1.60999,1e-5 3.51159,-0.2802 5.7048,-0.8406 l 0,2.41501 c -2.09992,0.46712 -4.14145,0.70068 -6.12457,0.70068 -5.18036,0 -7.77054,-1.72679 -7.77054,-5.18036 l 0,-6.68533 c 0,-2.07641 0.59494,-3.55788 1.78482,-4.44443 1.18988,-0.88652 3.09148,-1.32979 5.70481,-1.3298 2.45024,1e-5 4.24129,0.42583 5.37315,1.27746 1.13183,0.85166 1.69775,2.35058 1.69777,4.49677 z m -3.15094,-2.06574 0,-2.6596 c -1e-5,-1.02681 -0.31493,-1.73265 -0.94475,-2.11754 -0.62984,-0.38487 -1.67962,-0.5773 -3.14934,-0.57732 -1.39995,2e-5 -2.43833,0.18658 -3.11515,0.55969 -0.67684,0.37315 -1.01525,1.08487 -1.01525,2.13517 l 0,2.6596 z"
         style="fill:#d2c501;font-family:Play;-inkscape-font-specification:Play"
         id="path3818" />
      <path
         d="m 316.86893,191.77312 -3.15094,0 0,-12.21497 c -3e-5,-0.42011 -0.0349,-0.7701 -0.10468,-1.04996 -0.0698,-0.27983 -0.2156,-0.56555 -0.43739,-0.85716 -0.22184,-0.29158 -0.59514,-0.51321 -1.11992,-0.6649 -0.52482,-0.15166 -1.18385,-0.22749 -1.97708,-0.22751 -1.84359,2e-5 -3.02795,0.19833 -3.55309,0.59494 -0.52517,0.39664 -0.78775,1.1315 -0.78773,2.20459 l 0,12.21497 -3.14987,0 0,-12.21497 c -2e-5,-0.42011 -0.0349,-0.7701 -0.10468,-1.04996 -0.0698,-0.27983 -0.21559,-0.56555 -0.43739,-0.85716 -0.22183,-0.29158 -0.58944,-0.51321 -1.10283,-0.6649 -0.51342,-0.15166 -1.16675,-0.22749 -1.95999,-0.22751 -1.86636,2e-5 -3.10876,0.19245 -3.72719,0.57732 -0.61845,0.38489 -0.92766,1.12563 -0.92766,2.22221 l 0,12.21497 -3.14987,0 0,-16.94031 3.14987,0 0,2.06573 c 0.32684,-1.60998 2.22844,-2.41499 5.7048,-2.415 2.82337,1e-5 4.58505,0.76977 5.28504,2.30926 0.23354,-0.79324 0.89275,-1.37643 1.97761,-1.74957 1.08483,-0.37311 2.36248,-0.55968 3.83294,-0.55969 2.16967,1e-5 3.66877,0.40251 4.49729,1.2075 0.82848,0.80502 1.24273,2.02391 1.24276,3.65669 z"
         style="fill:#d2c501;font-family:Play;-inkscape-font-specification:Play"
         id="path3820" />
      <path
         d="m 337.33081,180.53761 0,5.87998 c -2e-5,1.05031 -0.12837,1.93721 -0.38505,2.66067 -0.25673,0.72347 -0.58339,1.28352 -0.98,1.68015 -0.39664,0.39663 -0.96257,0.69997 -1.69777,0.91003 -0.73523,0.21006 -1.43538,0.33842 -2.10045,0.38506 -0.66509,0.0466 -1.54593,0.07 -2.64252,0.07 -1.39995,0 -2.49067,-0.0466 -3.27217,-0.13992 -0.78151,-0.0933 -1.56319,-0.32079 -2.34504,-0.68253 -0.78187,-0.36173 -1.34192,-0.93923 -1.68015,-1.73248 -0.33824,-0.79325 -0.50736,-1.84357 -0.50735,-3.15094 l 0,-5.87998 c -10e-6,-1.11937 0.13422,-2.06412 0.40268,-2.83424 0.26845,-0.7701 0.59511,-1.36521 0.97999,-1.78536 0.38488,-0.4201 0.95062,-0.74089 1.69724,-0.96237 0.7466,-0.22144 1.4407,-0.35548 2.08229,-0.40214 0.64157,-0.0466 1.52241,-0.07 2.64251,-0.07 1.12009,1e-5 2.00093,0.0233 2.64252,0.07 0.64157,0.0467 1.33584,0.1807 2.08283,0.40214 0.74695,0.22148 1.31287,0.54227 1.69777,0.96237 0.38486,0.42015 0.71152,1.01526 0.97999,1.78536 0.26844,0.77012 0.40266,1.71487 0.40268,2.83424 z m -3.22037,6.33499 0,-6.85943 c -10e-6,-1.56371 -0.31511,-2.53213 -0.94528,-2.90528 -0.6302,-0.37311 -1.84358,-0.55967 -3.64014,-0.55969 -1.79657,2e-5 -3.00977,0.18658 -3.6396,0.55969 -0.62984,0.37315 -0.94475,1.34157 -0.94475,2.90528 l 0,6.85943 c 0,0.74698 0.0815,1.34209 0.2446,1.78536 0.16306,0.44327 0.46641,0.76406 0.91004,0.96237 0.44361,0.19832 0.89863,0.32079 1.36505,0.36743 0.4664,0.0466 1.15462,0.07 2.06466,0.07 0.91003,1e-5 1.59843,-0.0233 2.06521,-0.07 0.46675,-0.0466 0.92177,-0.16911 1.36505,-0.36743 0.44325,-0.19831 0.74659,-0.5191 0.91003,-0.96237 0.16341,-0.44327 0.24512,-1.03838 0.24513,-1.78536 z"
         style="fill:#d2c501;font-family:Play;-inkscape-font-specification:Play"
         id="path3822" />
      <path
         d="m 354.80838,185.82265 0,1.47079 c -2e-5,1.82007 -0.6359,3.08009 -1.90765,3.78006 -1.27179,0.69997 -3.09755,1.04996 -5.4773,1.04996 -1.82007,0 -3.75692,-0.14028 -5.81055,-0.42084 l 0,-2.41501 c 2.79989,0.44363 4.75988,0.66544 5.87998,0.66544 1.39993,0 2.44989,-0.13423 3.14987,-0.40268 0.69996,-0.26845 1.04995,-0.82245 1.04996,-1.66199 l 0,-1.71539 c -1e-5,-0.72346 -0.24497,-1.23687 -0.73487,-1.54022 -0.48992,-0.30334 -1.28317,-0.45501 -2.37976,-0.45502 l -1.92474,0 c -1.77379,1e-5 -3.1157,-0.36742 -4.02573,-1.1023 -0.91003,-0.73485 -1.36505,-1.74386 -1.36505,-3.02703 l 0,-1.57547 c 0,-2.65959 2.52004,-3.9894 7.56012,-3.98941 0.5604,1e-5 2.27543,0.0933 5.14511,0.27984 l 0,2.27509 c -2.00664,-0.32683 -3.76832,-0.49025 -5.28503,-0.49027 -1.6798,2e-5 -2.81716,0.16326 -3.41209,0.48973 -0.59495,0.3265 -0.89242,0.87498 -0.89242,1.64543 l 0,1.43448 c 0,1.14361 1.03821,1.71541 3.11463,1.7154 l 1.95999,0 c 3.57034,1e-5 5.35551,1.32981 5.35553,3.98941 z"
         style="fill:#d2c501;font-family:Play;-inkscape-font-specification:Play"
         id="path3824" />
    </g>
  </g>
</svg>
