<!-- Generator: Adobe Illustrator 10.0, SVG Export Plug-In . SVG Version: 3.0.0 Build 76)  -->
<svg xmlns:rdf="http://www.w3.org/1999/02/22-rdf-syntax-ns#" xmlns="http://www.w3.org/2000/svg" xml:space="preserve" height="21" width="134" version="1.1" xmlns:cc="http://creativecommons.org/ns#" xmlns:dc="http://purl.org/dc/elements/1.1/" viewBox="0 0 133.99999 20.999999"><metadata><rdf:RDF><cc:Work rdf:about=""><dc:format>image/svg+xml</dc:format><dc:type rdf:resource="http://purl.org/dc/dcmitype/StillImage"/><dc:title/></cc:Work></rdf:RDF></metadata>
<g fill="#FFF" transform="matrix(0.39235819,0,0,0.39235819,0,0.60129736)"><g><g fill="#FFF"><path fill-rule="evenodd" fill="#FFF" d="m165.91,0.002c-18.201,0-23.896,4.937-28.382,26.041-4.115,19.361-2.515,25.945,17.333,25.945,11.326,0,21.83-0.678,24.69-14.137l0.391-1.839h-7.845l-0.41,1.938c-1.521,7.163-5.054,7.841-15.509,7.841-13.746,0-14.477-2.031-11.06-18.103h36.59l1.091-5.129c3.99-18.78-0.43-22.557-16.89-22.557zm9.176,21.489h-28.657c3.067-11.711,4.317-15.293,18.157-15.293,11.62-0.001,13.18,0.872,10.49,15.293z"/></g></g><g><path fill-rule="evenodd" fill="#FFF" d="m236.53,51.407h26.09c15.25,0,17.762-9.393,20.124-19.111l2.58-12.128c4-18.771-7.08-19.586-13.24-19.586h-24.736l-10.805,50.825zm8.843-5.617,8.415-39.595h18.035c8.323,0,6.861,8.047,6.02,11.772l-2.84,13.351c-2.1,10.432-4.721,14.472-13.374,14.472h-16.256z"/></g><g><path fill-rule="evenodd" fill="#FFF" d="m292.66,26.043c-4.548,21.395-1.834,25.945,17.04,25.945,18.879,0,23.522-4.551,28.07-25.945,4.569-21.49,1.858-26.041-17.019-26.041-18.878,0-23.522,4.551-28.091,26.041zm7.939,0c3.765-17.715,5.186-19.846,18.836-19.846,13.648,0,14.166,2.13,10.398,19.846-3.745,17.619-5.165,19.749-18.815,19.749-13.649,0-14.164-2.13-10.419-19.749z"/></g><g><g fill="#FFF"><path fill-rule="evenodd" fill="#FFF" d="m203.7,0.583h-7.647l-10.804,50.824h7.646l6.296-29.624c2.491-11.714,6.025-15.586,18.512-15.586,8.616,0,11.87,1.55,9.896,10.842l-7.306,34.368h7.649l7.179-33.786c3.19-14.134-2.36-17.619-15.43-17.619-5.809,0-13.407,0.677-17.124,6.777h-0.193l1.317-6.196z"/></g></g><g><path fill="#FFF" d="m56.183,45.792c7.646,0,15.434-0.193,17.41-9.489,2.036-9.581-3.696-9.485-13.376-9.485-9.101,0-12.902,0.582-14.652,8.81-2.057,9.679,1.81,10.164,10.618,10.164zm22.041,5.618h-7.648l1.111-5.229-0.152-0.194c-4.139,5.81-11.635,6.003-18.025,6.003-11.422,0-18.908-2.131-16.089-15.393,2.984-14.038,10.656-15.974,23.24-15.974,5.035,0,14.807,0.484,14.883,5.13h0.484l1.994-9.39c1.976-9.292-2.775-10.162-11.391-10.162l-34.878-0.004-9.61,45.206h-8.228l9.609-45.206h-23.524l1.318-6.197h67.354c11.947,0.048,20.165,1.916,16.919,16.75l-7.367,34.66z"/></g><g><path fill-rule="evenodd" fill="#FFF" d="m181.71,27.689,1.346-6.199h-63.507l-12.59,24.108h-0.191l-4.85-45.015h-7.746l6.043,50.824h10.744l12.998-23.718h57.76z"/></g></g></svg>
