<!-- Generator: Adobe Illustrator 10.0, SVG Export Plug-In . SVG Version: 3.0.0 Build 76)  -->
<svg xmlns:rdf="http://www.w3.org/1999/02/22-rdf-syntax-ns#" xmlns="http://www.w3.org/2000/svg" xml:space="preserve" height="54" width="244" version="1.1" xmlns:cc="http://creativecommons.org/ns#" xmlns:dc="http://purl.org/dc/elements/1.1/" viewBox="0 0 243.99999 53.999998"><metadata><rdf:RDF><cc:Work rdf:about=""><dc:format>image/svg+xml</dc:format><dc:type rdf:resource="http://purl.org/dc/dcmitype/StillImage"/><dc:title/></cc:Work></rdf:RDF></metadata>
<g transform="translate(-168.81817,15.174047)"><g style="writing-mode:lr-tb;letter-spacing:0px;text-anchor:start;word-spacing:0px;text-align:start;" font-weight="normal" transform="matrix(0.77777778,0,0,0.77777778,-55.289098,158.08139)" line-height="125%" font-stretch="normal" font-size="18.45044899px" font-variant="normal" font-style="normal" font-family="Segoe UI" fill="#FFF"><path d="m312.57-157.67,0-12.919,3.5676,0c4.5525,0.00001,6.8288,2.0991,6.8288,6.2973-0.00001,1.994-0.63214,3.5961-1.8964,4.8063s-2.9565,1.8153-5.0766,1.8153zm1.5135-11.55,0,10.18,1.9279,0c1.6937,0,3.012-0.45345,3.955-1.3604,0.94294-0.9069,1.4144-2.1922,1.4144-3.8559-0.00001-3.3093-1.7598-4.964-5.2793-4.964z"/><path d="m326.06-169.24c-0.26426,0.00001-0.48949-0.0901-0.67567-0.27027-0.18619-0.18017-0.27928-0.40839-0.27928-0.68468,0-0.27627,0.0931-0.506,0.27928-0.68919,0.18618-0.18317,0.41141-0.27476,0.67567-0.27478,0.27027,0.00002,0.5,0.0916,0.68919,0.27478,0.18919,0.18319,0.28378,0.41292,0.28379,0.68919-0.00001,0.26427-0.0946,0.4895-0.28379,0.67567-0.18919,0.1862-0.41892,0.27929-0.68919,0.27928zm0.72072,11.568-1.4775,0,0-9.2252,1.4775,0z"/><path d="m334.58-165.4c-0.25827-0.19819-0.63064-0.29729-1.1171-0.2973-0.63064,0.00001-1.1577,0.29731-1.5811,0.89189-0.42343,0.59461-0.63514,1.4054-0.63514,2.4324v4.7027h-1.4775v-9.2252h1.4775v1.9009h0.036c0.21021-0.64865,0.53153-1.1546,0.96396-1.518,0.43243-0.36336,0.91591-0.54504,1.4504-0.54505,0.38438,0.00001,0.67868,0.0421,0.88289,0.12613z"/><path d="m343.6-161.91-6.5135,0c0.024,1.027,0.3003,1.8198,0.82883,2.3784,0.52852,0.55856,1.2552,0.83784,2.1802,0.83784,1.039,0,1.994-0.34234,2.8649-1.027v1.3874c-0.81082,0.58859-1.8829,0.88288-3.2162,0.88289-1.3033-0.00001-2.3273-0.41892-3.0721-1.2568-0.74475-0.83784-1.1171-2.0165-1.1171-3.536,0-1.4354,0.4069-2.6051,1.2207-3.509,0.81381-0.90389,1.8243-1.3558,3.0315-1.3558,1.2072,0.00001,2.1411,0.3904,2.8018,1.1712,0.66065,0.78079,0.99098,1.8649,0.99099,3.2522zm-1.5135-1.2523c-0.006-0.85284-0.21172-1.5165-0.61712-1.991-0.40541-0.47446-0.96847-0.7117-1.6892-0.71171-0.6967,0.00001-1.2883,0.24926-1.7748,0.74775-0.48649,0.4985-0.78679,1.1502-0.9009,1.955z"/><path d="m352.13-158.09c-0.70871,0.42642-1.5496,0.63963-2.5225,0.63964-1.3153-0.00001-2.3769-0.42793-3.1847-1.2838-0.80781-0.85585-1.2117-1.9655-1.2117-3.3288,0-1.5195,0.43544-2.7402,1.3063-3.6622,0.87087-0.92191,2.033-1.3829,3.4865-1.3829,0.8108,0.00001,1.5255,0.15016,2.1441,0.45045v1.5135c-0.68469-0.48047-1.4174-0.72071-2.1982-0.72072-0.94295,0.00001-1.7162,0.33785-2.3198,1.0135-0.6036,0.67569-0.90541,1.5631-0.9054,2.6622-0.00001,1.0811,0.28378,1.9339,0.85135,2.5586,0.56756,0.62462,1.3288,0.93693,2.2838,0.93693,0.8048,0,1.5616-0.26726,2.2703-0.8018z"/><path d="m358.67-157.76c-0.34835,0.19219-0.80781,0.28829-1.3784,0.28829-1.6156,0-2.4234-0.9009-2.4234-2.7027v-5.4594h-1.5856v-1.2613h1.5856v-2.2522l1.4775-0.47748v2.7297h2.3243v1.2613h-2.3243v5.1982c-0.00001,0.61862,0.1051,1.0601,0.31531,1.3243,0.21021,0.26426,0.55856,0.39639,1.045,0.39639,0.37237,0,0.69369-0.1021,0.96396-0.3063z"/><path d="m365.9-157.67,0-12.919,3.5676,0c4.5526,0.00001,6.8288,2.0991,6.8288,6.2973-0.00001,1.994-0.63214,3.5961-1.8964,4.8063s-2.9565,1.8153-5.0766,1.8153zm1.5135-11.55,0,10.18,1.9279,0c1.6937,0,3.012-0.45345,3.955-1.3604,0.94294-0.9069,1.4144-2.1922,1.4144-3.8559-0.00001-3.3093-1.7598-4.964-5.2793-4.964z"/><path d="m385.24-157.67-1.4775,0,0-1.4414-0.036,0c-0.64264,1.1051-1.5886,1.6576-2.8378,1.6577-0.91893-0.00001-1.6381-0.24325-2.1577-0.72973-0.51952-0.48649-0.77928-1.1321-0.77928-1.9369,0-1.7237,1.015-2.7267,3.045-3.009l2.7658-0.38739c-0.00001-1.5676-0.63364-2.3513-1.9009-2.3514-1.1111,0.00001-2.1141,0.37839-3.009,1.1351v-1.5135c0.9069-0.57656,1.952-0.86485,3.1351-0.86486,2.1682,0.00001,3.2522,1.1472,3.2522,3.4414zm-1.4775-4.6667-2.2252,0.30631c-0.68468,0.0961-1.2012,0.26577-1.5495,0.50901-0.34836,0.24324-0.52253,0.67418-0.52253,1.2928,0,0.45045,0.16066,0.81832,0.48198,1.1036,0.32132,0.28529,0.74925,0.42793,1.2838,0.42793,0.73273,0,1.3378-0.25675,1.8153-0.77027,0.47747-0.51351,0.71621-1.1637,0.71622-1.9504z"/><path d="m392.32-157.76c-0.34835,0.19219-0.80781,0.28829-1.3784,0.28829-1.6156,0-2.4234-0.9009-2.4234-2.7027v-5.4594h-1.5856v-1.2613h1.5856v-2.2522l1.4775-0.47748v2.7297h2.3243v1.2613h-2.3243v5.1982c0,0.61862,0.1051,1.0601,0.31531,1.3243,0.21021,0.26426,0.55856,0.39639,1.045,0.39639,0.37237,0,0.69369-0.1021,0.96396-0.3063z"/><path d="m400.92-157.67-1.4775,0,0-1.4414-0.036,0c-0.64265,1.1051-1.5886,1.6576-2.8378,1.6577-0.91892-0.00001-1.6381-0.24325-2.1577-0.72973-0.51952-0.48649-0.77928-1.1321-0.77928-1.9369,0-1.7237,1.015-2.7267,3.045-3.009l2.7658-0.38739c0-1.5676-0.63364-2.3513-1.9009-2.3514-1.1111,0.00001-2.1141,0.37839-3.009,1.1351v-1.5135c0.90691-0.57656,1.952-0.86485,3.1351-0.86486,2.1682,0.00001,3.2522,1.1472,3.2522,3.4414zm-1.4775-4.6667-2.2252,0.30631c-0.68469,0.0961-1.2012,0.26577-1.5496,0.50901-0.34835,0.24324-0.52253,0.67418-0.52252,1.2928-0.00001,0.45045,0.16066,0.81832,0.48198,1.1036,0.32132,0.28529,0.74924,0.42793,1.2838,0.42793,0.73273,0,1.3378-0.25675,1.8153-0.77027,0.47747-0.51351,0.71621-1.1637,0.71621-1.9504z"/><path d="m405.23-159-0.036,0,0,1.3333-1.4775,0,0-13.658,1.4775,0,0,6.0541,0.036,0c0.72673-1.2252,1.7898-1.8378,3.1892-1.8378,1.1832,0.00001,2.1096,0.41292,2.7793,1.2387,0.66966,0.82583,1.0045,1.9324,1.0045,3.3198-0.00001,1.5435-0.37539,2.7793-1.1261,3.7072-0.75076,0.92793-1.7778,1.3919-3.0811,1.3919-1.2192-0.00001-2.1412-0.51652-2.7658-1.5496zm-0.036-3.7207,0,1.2883c-0.00001,0.76277,0.24774,1.4099,0.74324,1.9414,0.49549,0.53154,1.1246,0.7973,1.8874,0.7973,0.89489,0,1.5961-0.34234,2.1036-1.027,0.5075-0.68469,0.76125-1.6366,0.76126-2.8559-0.00001-1.027-0.23724-1.8318-0.71171-2.4144-0.47448-0.58258-1.1171-0.87387-1.9279-0.87388-0.85886,0.00001-1.5496,0.29881-2.0721,0.8964-0.52253,0.5976-0.78379,1.3468-0.78378,2.2478z"/><path d="m421.17-157.67-1.4775,0,0-1.4414-0.036,0c-0.64265,1.1051-1.5886,1.6576-2.8378,1.6577-0.91892-0.00001-1.6381-0.24325-2.1577-0.72973-0.51952-0.48649-0.77928-1.1321-0.77928-1.9369,0-1.7237,1.015-2.7267,3.045-3.009l2.7658-0.38739c0-1.5676-0.63363-2.3513-1.9009-2.3514-1.1111,0.00001-2.1141,0.37839-3.009,1.1351v-1.5135c0.9069-0.57656,1.9519-0.86485,3.1351-0.86486,2.1682,0.00001,3.2522,1.1472,3.2522,3.4414zm-1.4775-4.6667-2.2252,0.30631c-0.68469,0.0961-1.2012,0.26577-1.5496,0.50901-0.34835,0.24324-0.52252,0.67418-0.52252,1.2928,0,0.45045,0.16066,0.81832,0.48198,1.1036,0.32132,0.28529,0.74925,0.42793,1.2838,0.42793,0.73273,0,1.3378-0.25675,1.8153-0.77027,0.47747-0.51351,0.71621-1.1637,0.71621-1.9504z"/><path d="m423.41-158,0-1.5856c0.8048,0.5946,1.6907,0.89189,2.6577,0.89189,1.2973,0,1.9459-0.43243,1.9459-1.2973,0-0.24624-0.0556-0.45495-0.16666-0.62612-0.11112-0.17117-0.26127-0.32282-0.45045-0.45496-0.1892-0.13212-0.41142-0.25074-0.66667-0.35585-0.25526-0.1051-0.53003-0.21471-0.82432-0.32883-0.40841-0.16216-0.76727-0.32582-1.0766-0.49099-0.30931-0.16516-0.56757-0.35135-0.77477-0.55856-0.20721-0.2072-0.36337-0.44294-0.46847-0.70721-0.10511-0.26426-0.15766-0.57356-0.15766-0.92793,0-0.43242,0.0991-0.8153,0.2973-1.1486,0.19819-0.33333,0.46246-0.61261,0.79279-0.83784,0.33033-0.22522,0.7072-0.39489,1.1306-0.50901,0.42342-0.11411,0.86036-0.17116,1.3108-0.17117,0.79879,0.00001,1.5135,0.13815,2.1441,0.41441v1.4955c-0.67868-0.44444-1.4595-0.66666-2.3423-0.66667-0.27628,0.00001-0.52553,0.0315-0.74775,0.0946s-0.41291,0.15166-0.57207,0.26576c-0.15916,0.11412-0.28228,0.25076-0.36937,0.40991-0.0871,0.15917-0.13063,0.33484-0.13063,0.52703,0,0.24025,0.0435,0.44145,0.13063,0.6036,0.0871,0.16217,0.21472,0.30631,0.38289,0.43243,0.16816,0.12614,0.37237,0.24025,0.61261,0.34235s0.51351,0.21322,0.81982,0.33333c0.4084,0.15616,0.77477,0.31682,1.0991,0.48198,0.32432,0.16517,0.60059,0.35136,0.82883,0.55856,0.22822,0.20721,0.40389,0.44595,0.52702,0.71622,0.12312,0.27027,0.18468,0.59159,0.18469,0.96396-0.00001,0.45646-0.10061,0.85286-0.3018,1.1892-0.20121,0.33634-0.46998,0.61562-0.80631,0.83784-0.33634,0.22222-0.72373,0.38738-1.1622,0.49549-0.43844,0.10811-0.8979,0.16216-1.3784,0.16217-0.94895-0.00001-1.7718-0.18319-2.4685-0.54955z"/><path d="m439.21-161.91-6.5135,0c0.024,1.027,0.30029,1.8198,0.82883,2.3784,0.52852,0.55856,1.2552,0.83784,2.1802,0.83784,1.039,0,1.994-0.34234,2.8649-1.027v1.3874c-0.81082,0.58859-1.8829,0.88288-3.2162,0.88289-1.3033-0.00001-2.3273-0.41892-3.0721-1.2568-0.74474-0.83784-1.1171-2.0165-1.1171-3.536,0-1.4354,0.4069-2.6051,1.2207-3.509,0.81381-0.90389,1.8243-1.3558,3.0315-1.3558,1.2072,0.00001,2.1411,0.3904,2.8018,1.1712,0.66065,0.78079,0.99098,1.8649,0.99099,3.2522zm-1.5135-1.2523c-0.006-0.85284-0.21172-1.5165-0.61712-1.991-0.40541-0.47446-0.96847-0.7117-1.6892-0.71171-0.6967,0.00001-1.2883,0.24926-1.7748,0.74775-0.48649,0.4985-0.78679,1.1502-0.9009,1.955z"/><path d="m446.17-162.23-4.9189,0,0-1.1622,4.9189,0z"/><path d="m453.12-157.76c-0.34835,0.19219-0.80781,0.28829-1.3784,0.28829-1.6156,0-2.4234-0.9009-2.4234-2.7027v-5.4594h-1.5856v-1.2613h1.5856v-2.2522l1.4775-0.47748v2.7297h2.3243v1.2613h-2.3243v5.1982c-0.00001,0.61862,0.1051,1.0601,0.31531,1.3243,0.21021,0.26426,0.55855,0.39639,1.045,0.39639,0.37236,0,0.69368-0.1021,0.96396-0.3063z"/><path d="m458.96-157.45c-1.3634-0.00001-2.452-0.43094-3.2658-1.2928-0.81381-0.86186-1.2207-2.0045-1.2207-3.4279,0-1.5495,0.42343-2.7598,1.2703-3.6306,0.84685-0.87086,1.991-1.3063,3.4324-1.3063,1.3754,0.00001,2.4489,0.42343,3.2207,1.2703,0.77176,0.84685,1.1576,2.021,1.1576,3.5225-0.00001,1.4715-0.41592,2.6502-1.2477,3.536-0.83184,0.88588-1.9475,1.3288-3.3468,1.3288zm0.10811-8.4144c-0.94896,0.00001-1.6997,0.32283-2.2522,0.96847-0.55256,0.64565-0.82884,1.536-0.82883,2.6712-0.00001,1.0931,0.27927,1.955,0.83783,2.5856,0.55856,0.63063,1.3063,0.94594,2.2432,0.94594,0.95495,0,1.6892-0.30931,2.2027-0.92793,0.51351-0.61861,0.77026-1.4985,0.77027-2.6396-0.00001-1.1531-0.25676-2.042-0.77027-2.6667-0.51352-0.62462-1.2478-0.93693-2.2027-0.93694z"/><path d="m470.64-162.23-4.9189,0,0-1.1622,4.9189,0z"/><path d="m488.82-170.59-3.6486,12.919-1.7748,0-2.6577-9.4414c-0.11412-0.40239-0.18319-0.84083-0.2072-1.3153h-0.036c-0.036,0.44446-0.11412,0.87689-0.23424,1.2973l-2.6757,9.4595h-1.7568l-3.7838-12.919h1.6667l2.7477,9.9099c0.11411,0.41442,0.18618,0.84685,0.21622,1.2973h0.045c0.03-0.31832,0.12312-0.75075,0.27928-1.2973l2.8559-9.9099h1.4504l2.7387,9.982c0.0961,0.34235,0.16815,0.74475,0.21621,1.2072h0.036c0.024-0.31231,0.10509-0.72672,0.24324-1.2432l2.6396-9.946z"/><path d="m497.94-161.91-6.5135,0c0.024,1.027,0.30029,1.8198,0.82883,2.3784,0.52852,0.55856,1.2552,0.83784,2.1802,0.83784,1.039,0,1.994-0.34234,2.8649-1.027v1.3874c-0.81082,0.58859-1.8829,0.88288-3.2162,0.88289-1.3033-0.00001-2.3273-0.41892-3.0721-1.2568-0.74474-0.83784-1.1171-2.0165-1.1171-3.536,0-1.4354,0.40691-2.6051,1.2207-3.509,0.81381-0.90389,1.8243-1.3558,3.0315-1.3558,1.2072,0.00001,2.1411,0.3904,2.8018,1.1712,0.66065,0.78079,0.99098,1.8649,0.99099,3.2522zm-1.5135-1.2523c-0.006-0.85284-0.21172-1.5165-0.61712-1.991-0.40541-0.47446-0.96848-0.7117-1.6892-0.71171-0.6967,0.00001-1.2883,0.24926-1.7748,0.74775-0.48649,0.4985-0.78679,1.1502-0.90091,1.955z"/><path d="m501.7-159-0.036,0,0,1.3333-1.4775,0,0-13.658,1.4775,0,0,6.0541,0.036,0c0.72673-1.2252,1.7898-1.8378,3.1892-1.8378,1.1832,0.00001,2.1096,0.41292,2.7793,1.2387,0.66966,0.82583,1.0045,1.9324,1.0045,3.3198-0.00001,1.5435-0.37539,2.7793-1.1261,3.7072-0.75076,0.92793-1.7778,1.3919-3.0811,1.3919-1.2192-0.00001-2.1412-0.51652-2.7658-1.5496zm-0.036-3.7207,0,1.2883c-0.00001,0.76277,0.24774,1.4099,0.74324,1.9414,0.49549,0.53154,1.1246,0.7973,1.8874,0.7973,0.89489,0,1.5961-0.34234,2.1036-1.027,0.5075-0.68469,0.76125-1.6366,0.76126-2.8559-0.00001-1.027-0.23724-1.8318-0.71171-2.4144-0.47448-0.58258-1.1171-0.87387-1.9279-0.87388-0.85886,0.00001-1.5496,0.29881-2.0721,0.8964-0.52253,0.5976-0.78379,1.3468-0.78378,2.2478z"/><path d="m529.45-157.67-1.5045,0,0-8.6667c-0.00001-0.68467,0.042-1.5225,0.12613-2.5135h-0.036c-0.14415,0.58259-0.27328,1-0.38738,1.2522l-4.4144,9.9279h-0.73874l-4.4054-9.8559c-0.12613-0.28827-0.25526-0.72972-0.38739-1.3243h-0.036c0.048,0.51653,0.0721,1.3604,0.0721,2.5315v8.6486h-1.4595v-12.919h2l3.964,9.009c0.3063,0.69069,0.5045,1.2072,0.5946,1.5496h0.054c0.25825-0.70871,0.46546-1.2372,0.62162-1.5856l4.045-8.973h1.8919z"/><path d="m540.07-161.91-6.5135,0c0.024,1.027,0.3003,1.8198,0.82883,2.3784,0.52852,0.55856,1.2552,0.83784,2.1802,0.83784,1.039,0,1.994-0.34234,2.8649-1.027v1.3874c-0.81081,0.58859-1.8829,0.88288-3.2162,0.88289-1.3033-0.00001-2.3273-0.41892-3.0721-1.2568-0.74475-0.83784-1.1171-2.0165-1.1171-3.536,0-1.4354,0.4069-2.6051,1.2207-3.509,0.81381-0.90389,1.8243-1.3558,3.0315-1.3558,1.2072,0.00001,2.1411,0.3904,2.8018,1.1712,0.66065,0.78079,0.99098,1.8649,0.99099,3.2522zm-1.5135-1.2523c-0.006-0.85284-0.21172-1.5165-0.61712-1.991-0.40541-0.47446-0.96847-0.7117-1.6892-0.71171-0.6967,0.00001-1.2883,0.24926-1.7748,0.74775-0.48649,0.4985-0.78679,1.1502-0.9009,1.955z"/><path d="m541.76-158,0-1.5856c0.80481,0.5946,1.6907,0.89189,2.6577,0.89189,1.2973,0,1.9459-0.43243,1.946-1.2973-0.00001-0.24624-0.0556-0.45495-0.16667-0.62612-0.11112-0.17117-0.26127-0.32282-0.45045-0.45496-0.18919-0.13212-0.41142-0.25074-0.66667-0.35585-0.25525-0.1051-0.53003-0.21471-0.82432-0.32883-0.40841-0.16216-0.76727-0.32582-1.0766-0.49099-0.30931-0.16516-0.56757-0.35135-0.77477-0.55856-0.20721-0.2072-0.36337-0.44294-0.46847-0.70721-0.10511-0.26426-0.15766-0.57356-0.15766-0.92793,0-0.43242,0.0991-0.8153,0.2973-1.1486,0.1982-0.33333,0.46246-0.61261,0.79279-0.83784,0.33033-0.22522,0.70721-0.39489,1.1306-0.50901,0.42342-0.11411,0.86036-0.17116,1.3108-0.17117,0.7988,0.00001,1.5135,0.13815,2.1442,0.41441v1.4955c-0.67869-0.44444-1.4595-0.66666-2.3423-0.66667-0.27628,0.00001-0.52553,0.0315-0.74775,0.0946-0.22223,0.0631-0.41292,0.15166-0.57207,0.26576-0.15917,0.11412-0.28229,0.25076-0.36937,0.40991-0.0871,0.15917-0.13064,0.33484-0.13063,0.52703-0.00001,0.24025,0.0435,0.44145,0.13063,0.6036,0.0871,0.16217,0.21471,0.30631,0.38288,0.43243,0.16816,0.12614,0.37237,0.24025,0.61261,0.34235s0.51351,0.21322,0.81982,0.33333c0.40841,0.15616,0.77477,0.31682,1.0991,0.48198,0.32432,0.16517,0.6006,0.35136,0.82883,0.55856,0.22822,0.20721,0.4039,0.44595,0.52703,0.71622,0.12311,0.27027,0.18467,0.59159,0.18468,0.96396-0.00001,0.45646-0.10061,0.85286-0.3018,1.1892-0.20121,0.33634-0.46998,0.61562-0.80631,0.83784-0.33634,0.22222-0.72373,0.38738-1.1622,0.49549-0.43844,0.10811-0.8979,0.16216-1.3784,0.16217-0.94895-0.00001-1.7718-0.18319-2.4685-0.54955z"/><path d="m549.58-158,0-1.5856c0.8048,0.5946,1.6907,0.89189,2.6577,0.89189,1.2973,0,1.9459-0.43243,1.9459-1.2973,0-0.24624-0.0556-0.45495-0.16666-0.62612-0.11112-0.17117-0.26127-0.32282-0.45045-0.45496-0.1892-0.13212-0.41142-0.25074-0.66667-0.35585-0.25526-0.1051-0.53004-0.21471-0.82433-0.32883-0.40841-0.16216-0.76727-0.32582-1.0766-0.49099-0.30931-0.16516-0.56757-0.35135-0.77478-0.55856-0.20721-0.2072-0.36336-0.44294-0.46847-0.70721-0.1051-0.26426-0.15765-0.57356-0.15765-0.92793,0-0.43242,0.0991-0.8153,0.29729-1.1486,0.1982-0.33333,0.46246-0.61261,0.7928-0.83784,0.33032-0.22522,0.7072-0.39489,1.1306-0.50901,0.42342-0.11411,0.86035-0.17116,1.3108-0.17117,0.79879,0.00001,1.5135,0.13815,2.1441,0.41441v1.4955c-0.67868-0.44444-1.4595-0.66666-2.3423-0.66667-0.27628,0.00001-0.52553,0.0315-0.74775,0.0946s-0.41291,0.15166-0.57207,0.26576c-0.15916,0.11412-0.28228,0.25076-0.36937,0.40991-0.0871,0.15917-0.13063,0.33484-0.13063,0.52703,0,0.24025,0.0435,0.44145,0.13063,0.6036,0.0871,0.16217,0.21471,0.30631,0.38288,0.43243,0.16817,0.12614,0.37237,0.24025,0.61262,0.34235,0.24023,0.1021,0.51351,0.21322,0.81982,0.33333,0.4084,0.15616,0.77477,0.31682,1.0991,0.48198,0.32431,0.16517,0.60059,0.35136,0.82882,0.55856,0.22823,0.20721,0.4039,0.44595,0.52703,0.71622,0.12312,0.27027,0.18468,0.59159,0.18469,0.96396-0.00001,0.45646-0.10061,0.85286-0.30181,1.1892s-0.46997,0.61562-0.8063,0.83784c-0.33634,0.22222-0.72373,0.38738-1.1622,0.49549-0.43845,0.10811-0.89791,0.16216-1.3784,0.16217-0.94895-0.00001-1.7718-0.18319-2.4685-0.54955z"/><path d="m564.56-157.67-1.4775,0,0-1.4414-0.036,0c-0.64265,1.1051-1.5886,1.6576-2.8378,1.6577-0.91892-0.00001-1.6381-0.24325-2.1576-0.72973-0.51952-0.48649-0.77928-1.1321-0.77928-1.9369,0-1.7237,1.015-2.7267,3.045-3.009l2.7658-0.38739c-0.00001-1.5676-0.63364-2.3513-1.9009-2.3514-1.1111,0.00001-2.1141,0.37839-3.009,1.1351v-1.5135c0.9069-0.57656,1.952-0.86485,3.1351-0.86486,2.1682,0.00001,3.2522,1.1472,3.2522,3.4414zm-1.4775-4.6667-2.2252,0.30631c-0.68469,0.0961-1.2012,0.26577-1.5496,0.50901-0.34835,0.24324-0.52252,0.67418-0.52252,1.2928,0,0.45045,0.16066,0.81832,0.48198,1.1036,0.32132,0.28529,0.74925,0.42793,1.2838,0.42793,0.73272,0,1.3378-0.25675,1.8153-0.77027,0.47747-0.51351,0.71621-1.1637,0.71622-1.9504z"/><path d="m575.23-158.41c-0.00001,3.3874-1.6216,5.0811-4.8649,5.0811-1.1412,0-2.1381-0.21622-2.991-0.64865v-1.4775c1.039,0.57658,2.03,0.86487,2.973,0.86487,2.2703,0,3.4054-1.2072,3.4054-3.6216v-1.009h-0.036c-0.70271,1.1772-1.7598,1.7658-3.1712,1.7658-1.1472-0.00001-2.0706-0.40991-2.7703-1.2297-0.6997-0.81982-1.0496-1.9204-1.0496-3.3018,0-1.5676,0.37687-2.8138,1.1306-3.7387,0.75375-0.92492,1.7853-1.3874,3.0946-1.3874,1.2432,0.00001,2.1652,0.49851,2.7658,1.4955h0.036v-1.2793h1.4775zm-1.4775-3.4324,0-1.3604c0-0.73273-0.24775-1.3604-0.74324-1.8829-0.4955-0.52252-1.1126-0.78378-1.8514-0.78379-0.91292,0.00001-1.6276,0.33184-2.1442,0.9955-0.51651,0.66367-0.77477,1.5931-0.77477,2.7883,0,1.027,0.24775,1.8484,0.74324,2.464,0.49549,0.61562,1.1516,0.92342,1.9685,0.92342,0.82882,0,1.503-0.29429,2.0225-0.88288,0.51952-0.58859,0.77928-1.3423,0.77928-2.2613z"/><path d="m579-169.24c-0.26427,0.00001-0.48949-0.0901-0.67568-0.27027s-0.27928-0.40839-0.27928-0.68468c0-0.27627,0.0931-0.506,0.27928-0.68919,0.18619-0.18317,0.41141-0.27476,0.67568-0.27478,0.27027,0.00002,0.49999,0.0916,0.68919,0.27478,0.18918,0.18319,0.28378,0.41292,0.28378,0.68919,0,0.26427-0.0946,0.4895-0.28378,0.67567-0.1892,0.1862-0.41892,0.27929-0.68919,0.27928zm0.72072,11.568-1.4775,0,0-9.2252,1.4775,0z"/><path d="m590.37-157.67-1.4775,0,0-5.2613c-0.00001-1.958-0.71473-2.9369-2.1442-2.9369-0.73874,0.00001-1.3498,0.27779-1.8333,0.83333-0.48349,0.55557-0.72523,1.2568-0.72523,2.1036v5.2613h-1.4775v-9.2252h1.4775v1.5315h0.036c0.69669-1.1652,1.7057-1.7477,3.027-1.7478,1.009,0.00001,1.7808,0.32583,2.3153,0.97748,0.53453,0.65166,0.80179,1.5931,0.8018,2.8243z"/><path d="m601.03-158.41c-0.00001,3.3874-1.6216,5.0811-4.8649,5.0811-1.1411,0-2.1381-0.21622-2.991-0.64865v-1.4775c1.039,0.57658,2.03,0.86487,2.973,0.86487,2.2703,0,3.4054-1.2072,3.4054-3.6216v-1.009h-0.036c-0.70271,1.1772-1.7598,1.7658-3.1712,1.7658-1.1472-0.00001-2.0706-0.40991-2.7703-1.2297-0.6997-0.81982-1.0496-1.9204-1.0496-3.3018,0-1.5676,0.37688-2.8138,1.1306-3.7387,0.75375-0.92492,1.7853-1.3874,3.0946-1.3874,1.2432,0.00001,2.1652,0.49851,2.7658,1.4955h0.036v-1.2793h1.4775zm-1.4775-3.4324,0-1.3604c-0.00001-0.73273-0.24775-1.3604-0.74324-1.8829-0.4955-0.52252-1.1126-0.78378-1.8514-0.78379-0.91292,0.00001-1.6276,0.33184-2.1442,0.9955-0.51652,0.66367-0.77477,1.5931-0.77477,2.7883,0,1.027,0.24774,1.8484,0.74324,2.464,0.49549,0.61562,1.1516,0.92342,1.9685,0.92342,0.82882,0,1.503-0.29429,2.0225-0.88288,0.51951-0.58859,0.77927-1.3423,0.77928-2.2613z"/></g><g transform="translate(342.25177,160.15437)"><path d="m-147.83-144.29-1.6016,0-6.2305-21.074c-0.31252-1.0807-0.4883-1.9596-0.52734-2.6367h-0.0781c-0.0391,0.57294-0.2409,1.4388-0.60547,2.5976l-6.6406,21.113h-1.6016l-8.3203-28.008h2.168l6.3867,22.441c0.28645,1.0156,0.48827,1.8424,0.60547,2.4805h0.0781c0.0781-0.48177,0.30598-1.3086,0.6836-2.4805l6.9141-22.441h0.97656l6.3477,22.441c0.29945,1.0417,0.50127,1.8685,0.60547,2.4805h0.0781c0.0651-0.36458,0.16925-0.78125,0.3125-1.25l6.5625-23.672h2.0898z" style="text-align:start;" fill="#FFF"/><path d="m-139.02-154.21c0,2.7474,0.63476,4.8958,1.9043,6.4453s3.0111,2.3242,5.2246,2.3242c2.2396,0,4.4271-0.82682,6.5625-2.4805v1.9141c-2.0703,1.4714-4.3815,2.207-6.9336,2.207-2.5781,0-4.6615-0.92448-6.25-2.7734-1.5885-1.849-2.3828-4.4596-2.3828-7.832,0-2.9167,0.83008-5.3743,2.4902-7.373,1.6602-1.9987,3.8184-2.998,6.4746-2.998,2.487,0.00002,4.3945,0.87242,5.7227,2.6172,1.3281,1.7448,1.9922,4.1276,1.9922,7.1484v0.80078zm12.93-1.6406c-0.0781-2.3047-0.63153-4.095-1.6602-5.3711-1.0287-1.276-2.4479-1.914-4.2578-1.9141-1.875,0.00002-3.4277,0.62827-4.6582,1.8848s-1.9889,3.0567-2.2754,5.4004z" style="text-align:start;" fill="#FFF"/><path d="m-119.34-147.85-0.0781,0,0,3.5547-1.7969,0,0-29.609,1.7969,0,0,13.73,0.0781,0c0.71614-1.4713,1.7415-2.6074,3.0762-3.4082,1.3346-0.80077,2.8027-1.2012,4.4043-1.2012,2.539,0.00002,4.5215,0.87567,5.9473,2.627s2.1386,4.1309,2.1387,7.1387c-0.00002,3.3464-0.82684,6.0514-2.4805,8.1152s-3.8021,3.0957-6.4453,3.0957c-2.9948,0-5.2083-1.3477-6.6406-4.043zm-0.0781-7.4414,0,2.5195c0,2.0052,0.63151,3.7272,1.8945,5.166s2.9232,2.1582,4.9805,2.1582c2.0443,0,3.7044-0.87565,4.9805-2.627,1.276-1.7513,1.914-4.0527,1.9141-6.9043-0.00001-2.5-0.58595-4.4857-1.7578-5.957-1.1719-1.4713-2.7344-2.207-4.6875-2.207-2.3307,0.00002-4.1341,0.78127-5.4102,2.3438-1.276,1.5625-1.9141,3.3984-1.9141,5.5078z" style="text-align:start;" fill="#FFF"/><path d="m-68.249-143.74-5.0459,0,0-19.841c-0.00002-1.6249,0.0997-3.6133,0.29934-5.9652h-0.0855c-0.31362,1.3399-0.59157,2.302-0.83385,2.8864l-9.151,22.92h-3.5064l-9.1724-22.749c-0.25658-0.66991-0.52741-1.689-0.81248-3.0574h-0.0855c0.11402,1.2259,0.17103,3.2285,0.17104,6.008v19.799h-4.7038v-30.66h7.1626l8.0606,20.419c0.6129,1.5679,1.012,2.7368,1.1973,3.5065h0.10695c0.52737-1.6107,0.95499-2.808,1.2828-3.592l8.2102-20.333h6.906z" style="text-align:start;" fill="#F60"/><path d="m-51.414-143.25c-0.898,0-1.8138-0.0891-2.7474-0.26726-0.93365-0.17817-1.8388-0.449-2.7154-0.81248-0.87662-0.36347-1.714-0.81603-2.5122-1.3577-0.79823-0.54165-1.5252-1.1688-2.1808-1.8815-2.58-2.865-3.8699-6.6067-3.8699-11.225,0-4.9318,1.347-8.8588,4.041-11.781,2.7225-2.9363,6.4428-4.4044,11.161-4.4044,4.2334,0.00002,7.6686,1.4254,10.306,4.2762,2.6369,2.8508,3.9554,6.5782,3.9554,11.182-0.00003,1.91-0.20671,3.7131-0.62005,5.4094-0.41339,1.6962-1.037,3.2285-1.8708,4.5969-0.83388,1.3684-1.8815,2.5265-3.143,3.4744-1.2615,0.94789-2.7617,1.6285-4.5007,2.0419,0.75544,0.72695,1.4646,1.3684,2.1274,1.9243,0.66279,0.5559,1.322,1.0227,1.9777,1.4004,0.65566,0.37773,1.3398,0.66637,2.0526,0.86592,0.71267,0.19955,1.4966,0.29933,2.3519,0.29933,0.22804,0,0.47748-0.0109,0.74834-0.0321,0.27078-0.0214,0.54161-0.057,0.81246-0.10695,0.27079-0.0499,0.53093-0.10696,0.7804-0.17105,0.24941-0.0641,0.48104-0.13898,0.69488-0.2245v4.5327c-0.24234,0.0855-0.5203,0.15679-0.83385,0.21381-0.31362,0.057-0.6272,0.10685-0.94075,0.14966-0.31362,0.0428-0.62364,0.0749-0.93007,0.0962-0.30649,0.0214-0.59513,0.0321-0.86593,0.0321-1.4824-0.00001-2.8116-0.21382-3.9875-0.64143-1.176-0.42762-2.2771-1.0156-3.3033-1.7639-1.0263-0.74833-2.0169-1.6214-2.9719-2.6192-0.95503-0.99777-1.9599-2.0668-3.0147-3.2071zm0.81247-27.196c-2.8223,0.00004-5.1172,1.0477-6.8846,3.143-1.7532,2.0954-2.6298,4.8535-2.6298,8.2744-0.00001,3.3924,0.85523,6.1434,2.5657,8.253,1.7247,2.0668,3.9626,3.1002,6.7136,3.1002,2.9505,0.00001,5.2739-0.99064,6.9702-2.9719,1.6962-1.9813,2.5443-4.7537,2.5443-8.3172-0.00003-3.6775-0.82675-6.5069-2.4802-8.4882-1.6392-1.9955-3.9056-2.9933-6.7991-2.9933z" style="text-align:start;" fill="#F60"/></g></g></svg>
